%TF.GenerationSoftware,KiCad,Pcbnew,9.0.0*%
%TF.CreationDate,2025-04-07T19:53:14+05:30*%
%TF.ProjectId,Wearable_Charger,57656172-6162-46c6-95a0-436861726765,rev?*%
%TF.SameCoordinates,Original*%
%TF.FileFunction,Paste,Top*%
%TF.FilePolarity,Positive*%
%FSLAX46Y46*%
G04 Gerber Fmt 4.6, Leading zero omitted, Abs format (unit mm)*
G04 Created by KiCad (PCBNEW 9.0.0) date 2025-04-07 19:53:14*
%MOMM*%
%LPD*%
G01*
G04 APERTURE LIST*
G04 Aperture macros list*
%AMRoundRect*
0 Rectangle with rounded corners*
0 $1 Rounding radius*
0 $2 $3 $4 $5 $6 $7 $8 $9 X,Y pos of 4 corners*
0 Add a 4 corners polygon primitive as box body*
4,1,4,$2,$3,$4,$5,$6,$7,$8,$9,$2,$3,0*
0 Add four circle primitives for the rounded corners*
1,1,$1+$1,$2,$3*
1,1,$1+$1,$4,$5*
1,1,$1+$1,$6,$7*
1,1,$1+$1,$8,$9*
0 Add four rect primitives between the rounded corners*
20,1,$1+$1,$2,$3,$4,$5,0*
20,1,$1+$1,$4,$5,$6,$7,0*
20,1,$1+$1,$6,$7,$8,$9,0*
20,1,$1+$1,$8,$9,$2,$3,0*%
G04 Aperture macros list end*
%ADD10RoundRect,0.100000X-0.637500X-0.100000X0.637500X-0.100000X0.637500X0.100000X-0.637500X0.100000X0*%
%ADD11RoundRect,0.375000X-0.625000X-0.375000X0.625000X-0.375000X0.625000X0.375000X-0.625000X0.375000X0*%
%ADD12RoundRect,0.500000X-0.500000X-1.400000X0.500000X-1.400000X0.500000X1.400000X-0.500000X1.400000X0*%
%ADD13RoundRect,0.125000X-0.537500X-0.125000X0.537500X-0.125000X0.537500X0.125000X-0.537500X0.125000X0*%
%ADD14R,1.500000X0.900000*%
%ADD15R,0.900000X1.500000*%
%ADD16R,1.050000X1.050000*%
%ADD17RoundRect,0.090000X-0.139000X-0.090000X0.139000X-0.090000X0.139000X0.090000X-0.139000X0.090000X0*%
%ADD18RoundRect,0.100000X0.295000X-0.100000X0.295000X0.100000X-0.295000X0.100000X-0.295000X-0.100000X0*%
%ADD19RoundRect,0.162500X0.637500X-0.162500X0.637500X0.162500X-0.637500X0.162500X-0.637500X-0.162500X0*%
%ADD20RoundRect,0.150000X0.512500X0.150000X-0.512500X0.150000X-0.512500X-0.150000X0.512500X-0.150000X0*%
%ADD21RoundRect,0.250000X0.255000X0.440000X-0.255000X0.440000X-0.255000X-0.440000X0.255000X-0.440000X0*%
%ADD22RoundRect,0.150000X0.825000X0.150000X-0.825000X0.150000X-0.825000X-0.150000X0.825000X-0.150000X0*%
G04 APERTURE END LIST*
D10*
%TO.C,U1*%
X149800000Y-115050000D03*
X149800000Y-115700000D03*
X149800000Y-116350000D03*
X149800000Y-117000000D03*
X149800000Y-117650000D03*
X149800000Y-118300000D03*
X149800000Y-118950000D03*
X149800000Y-119600000D03*
X149800000Y-120250000D03*
X149800000Y-120900000D03*
X155525000Y-120900000D03*
X155525000Y-120250000D03*
X155525000Y-119600000D03*
X155525000Y-118950000D03*
X155525000Y-118300000D03*
X155525000Y-117650000D03*
X155525000Y-117000000D03*
X155525000Y-116350000D03*
X155525000Y-115700000D03*
X155525000Y-115050000D03*
%TD*%
D11*
%TO.C,U5*%
X134400000Y-127400000D03*
X134400000Y-129700000D03*
D12*
X140700000Y-129700000D03*
D11*
X134400000Y-132000000D03*
%TD*%
D13*
%TO.C,U6*%
X190262500Y-103425000D03*
X190262500Y-104075000D03*
X190262500Y-104725000D03*
X190262500Y-105375000D03*
X192537500Y-105375000D03*
X192537500Y-104725000D03*
X192537500Y-104075000D03*
X192537500Y-103425000D03*
%TD*%
D14*
%TO.C,U8*%
X155605000Y-85585000D03*
X155605000Y-86855000D03*
X155605000Y-88125000D03*
X155605000Y-89395000D03*
X155605000Y-90665000D03*
X155605000Y-91935000D03*
X155605000Y-93205000D03*
X155605000Y-94475000D03*
X155605000Y-95745000D03*
X155605000Y-97015000D03*
X155605000Y-98285000D03*
X155605000Y-99555000D03*
X155605000Y-100825000D03*
X155605000Y-102095000D03*
D15*
X158645000Y-103345000D03*
X159915000Y-103345000D03*
X161185000Y-103345000D03*
X162455000Y-103345000D03*
X163725000Y-103345000D03*
X164995000Y-103345000D03*
X166265000Y-103345000D03*
X167535000Y-103345000D03*
X168805000Y-103345000D03*
X170075000Y-103345000D03*
D14*
X173105000Y-102095000D03*
X173105000Y-100825000D03*
X173105000Y-99555000D03*
X173105000Y-98285000D03*
X173105000Y-97015000D03*
X173105000Y-95745000D03*
X173105000Y-94475000D03*
X173105000Y-93205000D03*
X173105000Y-91935000D03*
X173105000Y-90665000D03*
X173105000Y-89395000D03*
X173105000Y-88125000D03*
X173105000Y-86855000D03*
X173105000Y-85585000D03*
D16*
X162150000Y-91400000D03*
X162150000Y-92925000D03*
X162150000Y-94450000D03*
X163675000Y-91400000D03*
X163675000Y-92925000D03*
X163675000Y-94450000D03*
X165200000Y-91400000D03*
X165200000Y-92925000D03*
X165200000Y-94450000D03*
%TD*%
D17*
%TO.C,R1*%
X178750000Y-121915000D03*
X179615000Y-121915000D03*
%TD*%
D18*
%TO.C,P1*%
X137330000Y-103710000D03*
X137330000Y-104510000D03*
X137330000Y-105310000D03*
X137330000Y-106110000D03*
X137330000Y-106910000D03*
X137330000Y-107710000D03*
X137330000Y-108510000D03*
X137330000Y-109310000D03*
X139870000Y-109310000D03*
X139870000Y-108510000D03*
X139870000Y-107710000D03*
X139870000Y-106910000D03*
X139870000Y-106110000D03*
X139870000Y-105310000D03*
X139870000Y-104510000D03*
X139870000Y-103710000D03*
D19*
X138600000Y-102560000D03*
X138600000Y-110460000D03*
%TD*%
D20*
%TO.C,U3*%
X196600000Y-137400000D03*
X196600000Y-136450000D03*
X196600000Y-135500000D03*
X194325000Y-135500000D03*
X194325000Y-136450000D03*
X194325000Y-137400000D03*
%TD*%
D21*
%TO.C,U2*%
X171525000Y-134330000D03*
X171525000Y-132680000D03*
X170325000Y-134330000D03*
X170325000Y-132680000D03*
D22*
X173400000Y-135410000D03*
X173400000Y-134140000D03*
X173400000Y-132870000D03*
X173400000Y-131600000D03*
X168450000Y-131600000D03*
X168450000Y-132870000D03*
X168450000Y-134140000D03*
X168450000Y-135410000D03*
%TD*%
M02*
