M48
; DRILL file {KiCad 9.0.0} date 2025-04-07T20:54:55+0530
; FORMAT={-:-/ absolute / metric / decimal}
; #@! TF.CreationDate,2025-04-07T20:54:55+05:30
; #@! TF.GenerationSoftware,Kicad,Pcbnew,9.0.0
; #@! TF.FileFunction,Plated,1,2,PTH
FMAT,2
METRIC
; #@! TA.AperFunction,Plated,PTH,ViaDrill
T1C0.100
; #@! TA.AperFunction,Plated,PTH,ComponentDrill
T2C0.200
; #@! TA.AperFunction,Plated,PTH,ViaDrill
T3C0.300
; #@! TA.AperFunction,Plated,PTH,ComponentDrill
T4C0.750
%
G90
G05
T1
X138.09Y-106.11
X144.6Y-106.0
T2
X162.15Y-92.162
X162.15Y-93.688
X162.912Y-91.4
X162.912Y-92.925
X162.912Y-94.45
X163.675Y-92.162
X163.675Y-93.688
X164.438Y-91.4
X164.438Y-92.925
X164.438Y-94.45
X165.2Y-92.162
X165.2Y-93.688
X170.225Y-132.305
X170.225Y-133.505
X170.225Y-134.705
X171.625Y-132.305
X171.625Y-133.505
X171.625Y-134.705
T3
X153.5Y-110.1
X161.2Y-121.0
X162.2Y-106.2
X166.8Y-134.4
X176.4Y-137.2
X180.2Y-101.8
X183.4Y-107.2
X184.0Y-128.0
X185.8Y-136.4
X186.4Y-113.2
X186.4Y-123.392
X187.6Y-136.4
X188.6Y-124.6
X189.0Y-135.6
X191.801Y-139.199
X198.2Y-103.2
T4
X192.73Y-120.76
X194.0Y-120.76
X195.27Y-120.76
M30
