%TF.GenerationSoftware,KiCad,Pcbnew,9.0.0*%
%TF.CreationDate,2025-04-07T19:53:14+05:30*%
%TF.ProjectId,Wearable_Charger,57656172-6162-46c6-95a0-436861726765,rev?*%
%TF.SameCoordinates,Original*%
%TF.FileFunction,Legend,Top*%
%TF.FilePolarity,Positive*%
%FSLAX46Y46*%
G04 Gerber Fmt 4.6, Leading zero omitted, Abs format (unit mm)*
G04 Created by KiCad (PCBNEW 9.0.0) date 2025-04-07 19:53:14*
%MOMM*%
%LPD*%
G01*
G04 APERTURE LIST*
%ADD10C,0.150000*%
%ADD11C,0.120000*%
G04 APERTURE END LIST*
D10*
X151900595Y-113229819D02*
X151900595Y-114039342D01*
X151900595Y-114039342D02*
X151948214Y-114134580D01*
X151948214Y-114134580D02*
X151995833Y-114182200D01*
X151995833Y-114182200D02*
X152091071Y-114229819D01*
X152091071Y-114229819D02*
X152281547Y-114229819D01*
X152281547Y-114229819D02*
X152376785Y-114182200D01*
X152376785Y-114182200D02*
X152424404Y-114134580D01*
X152424404Y-114134580D02*
X152472023Y-114039342D01*
X152472023Y-114039342D02*
X152472023Y-113229819D01*
X153472023Y-114229819D02*
X152900595Y-114229819D01*
X153186309Y-114229819D02*
X153186309Y-113229819D01*
X153186309Y-113229819D02*
X153091071Y-113372676D01*
X153091071Y-113372676D02*
X152995833Y-113467914D01*
X152995833Y-113467914D02*
X152900595Y-113515533D01*
X193238095Y-116654819D02*
X193238095Y-117464342D01*
X193238095Y-117464342D02*
X193285714Y-117559580D01*
X193285714Y-117559580D02*
X193333333Y-117607200D01*
X193333333Y-117607200D02*
X193428571Y-117654819D01*
X193428571Y-117654819D02*
X193619047Y-117654819D01*
X193619047Y-117654819D02*
X193714285Y-117607200D01*
X193714285Y-117607200D02*
X193761904Y-117559580D01*
X193761904Y-117559580D02*
X193809523Y-117464342D01*
X193809523Y-117464342D02*
X193809523Y-116654819D01*
X194190476Y-116654819D02*
X194857142Y-116654819D01*
X194857142Y-116654819D02*
X194428571Y-117654819D01*
X136788095Y-124654819D02*
X136788095Y-125464342D01*
X136788095Y-125464342D02*
X136835714Y-125559580D01*
X136835714Y-125559580D02*
X136883333Y-125607200D01*
X136883333Y-125607200D02*
X136978571Y-125654819D01*
X136978571Y-125654819D02*
X137169047Y-125654819D01*
X137169047Y-125654819D02*
X137264285Y-125607200D01*
X137264285Y-125607200D02*
X137311904Y-125559580D01*
X137311904Y-125559580D02*
X137359523Y-125464342D01*
X137359523Y-125464342D02*
X137359523Y-124654819D01*
X138311904Y-124654819D02*
X137835714Y-124654819D01*
X137835714Y-124654819D02*
X137788095Y-125131009D01*
X137788095Y-125131009D02*
X137835714Y-125083390D01*
X137835714Y-125083390D02*
X137930952Y-125035771D01*
X137930952Y-125035771D02*
X138169047Y-125035771D01*
X138169047Y-125035771D02*
X138264285Y-125083390D01*
X138264285Y-125083390D02*
X138311904Y-125131009D01*
X138311904Y-125131009D02*
X138359523Y-125226247D01*
X138359523Y-125226247D02*
X138359523Y-125464342D01*
X138359523Y-125464342D02*
X138311904Y-125559580D01*
X138311904Y-125559580D02*
X138264285Y-125607200D01*
X138264285Y-125607200D02*
X138169047Y-125654819D01*
X138169047Y-125654819D02*
X137930952Y-125654819D01*
X137930952Y-125654819D02*
X137835714Y-125607200D01*
X137835714Y-125607200D02*
X137788095Y-125559580D01*
X190638095Y-101454819D02*
X190638095Y-102264342D01*
X190638095Y-102264342D02*
X190685714Y-102359580D01*
X190685714Y-102359580D02*
X190733333Y-102407200D01*
X190733333Y-102407200D02*
X190828571Y-102454819D01*
X190828571Y-102454819D02*
X191019047Y-102454819D01*
X191019047Y-102454819D02*
X191114285Y-102407200D01*
X191114285Y-102407200D02*
X191161904Y-102359580D01*
X191161904Y-102359580D02*
X191209523Y-102264342D01*
X191209523Y-102264342D02*
X191209523Y-101454819D01*
X192114285Y-101454819D02*
X191923809Y-101454819D01*
X191923809Y-101454819D02*
X191828571Y-101502438D01*
X191828571Y-101502438D02*
X191780952Y-101550057D01*
X191780952Y-101550057D02*
X191685714Y-101692914D01*
X191685714Y-101692914D02*
X191638095Y-101883390D01*
X191638095Y-101883390D02*
X191638095Y-102264342D01*
X191638095Y-102264342D02*
X191685714Y-102359580D01*
X191685714Y-102359580D02*
X191733333Y-102407200D01*
X191733333Y-102407200D02*
X191828571Y-102454819D01*
X191828571Y-102454819D02*
X192019047Y-102454819D01*
X192019047Y-102454819D02*
X192114285Y-102407200D01*
X192114285Y-102407200D02*
X192161904Y-102359580D01*
X192161904Y-102359580D02*
X192209523Y-102264342D01*
X192209523Y-102264342D02*
X192209523Y-102026247D01*
X192209523Y-102026247D02*
X192161904Y-101931009D01*
X192161904Y-101931009D02*
X192114285Y-101883390D01*
X192114285Y-101883390D02*
X192019047Y-101835771D01*
X192019047Y-101835771D02*
X191828571Y-101835771D01*
X191828571Y-101835771D02*
X191733333Y-101883390D01*
X191733333Y-101883390D02*
X191685714Y-101931009D01*
X191685714Y-101931009D02*
X191638095Y-102026247D01*
X153199819Y-103026904D02*
X154009342Y-103026904D01*
X154009342Y-103026904D02*
X154104580Y-102979285D01*
X154104580Y-102979285D02*
X154152200Y-102931666D01*
X154152200Y-102931666D02*
X154199819Y-102836428D01*
X154199819Y-102836428D02*
X154199819Y-102645952D01*
X154199819Y-102645952D02*
X154152200Y-102550714D01*
X154152200Y-102550714D02*
X154104580Y-102503095D01*
X154104580Y-102503095D02*
X154009342Y-102455476D01*
X154009342Y-102455476D02*
X153199819Y-102455476D01*
X153628390Y-101836428D02*
X153580771Y-101931666D01*
X153580771Y-101931666D02*
X153533152Y-101979285D01*
X153533152Y-101979285D02*
X153437914Y-102026904D01*
X153437914Y-102026904D02*
X153390295Y-102026904D01*
X153390295Y-102026904D02*
X153295057Y-101979285D01*
X153295057Y-101979285D02*
X153247438Y-101931666D01*
X153247438Y-101931666D02*
X153199819Y-101836428D01*
X153199819Y-101836428D02*
X153199819Y-101645952D01*
X153199819Y-101645952D02*
X153247438Y-101550714D01*
X153247438Y-101550714D02*
X153295057Y-101503095D01*
X153295057Y-101503095D02*
X153390295Y-101455476D01*
X153390295Y-101455476D02*
X153437914Y-101455476D01*
X153437914Y-101455476D02*
X153533152Y-101503095D01*
X153533152Y-101503095D02*
X153580771Y-101550714D01*
X153580771Y-101550714D02*
X153628390Y-101645952D01*
X153628390Y-101645952D02*
X153628390Y-101836428D01*
X153628390Y-101836428D02*
X153676009Y-101931666D01*
X153676009Y-101931666D02*
X153723628Y-101979285D01*
X153723628Y-101979285D02*
X153818866Y-102026904D01*
X153818866Y-102026904D02*
X154009342Y-102026904D01*
X154009342Y-102026904D02*
X154104580Y-101979285D01*
X154104580Y-101979285D02*
X154152200Y-101931666D01*
X154152200Y-101931666D02*
X154199819Y-101836428D01*
X154199819Y-101836428D02*
X154199819Y-101645952D01*
X154199819Y-101645952D02*
X154152200Y-101550714D01*
X154152200Y-101550714D02*
X154104580Y-101503095D01*
X154104580Y-101503095D02*
X154009342Y-101455476D01*
X154009342Y-101455476D02*
X153818866Y-101455476D01*
X153818866Y-101455476D02*
X153723628Y-101503095D01*
X153723628Y-101503095D02*
X153676009Y-101550714D01*
X153676009Y-101550714D02*
X153628390Y-101645952D01*
X179015833Y-121319819D02*
X178682500Y-120843628D01*
X178444405Y-121319819D02*
X178444405Y-120319819D01*
X178444405Y-120319819D02*
X178825357Y-120319819D01*
X178825357Y-120319819D02*
X178920595Y-120367438D01*
X178920595Y-120367438D02*
X178968214Y-120415057D01*
X178968214Y-120415057D02*
X179015833Y-120510295D01*
X179015833Y-120510295D02*
X179015833Y-120653152D01*
X179015833Y-120653152D02*
X178968214Y-120748390D01*
X178968214Y-120748390D02*
X178920595Y-120796009D01*
X178920595Y-120796009D02*
X178825357Y-120843628D01*
X178825357Y-120843628D02*
X178444405Y-120843628D01*
X179968214Y-121319819D02*
X179396786Y-121319819D01*
X179682500Y-121319819D02*
X179682500Y-120319819D01*
X179682500Y-120319819D02*
X179587262Y-120462676D01*
X179587262Y-120462676D02*
X179492024Y-120557914D01*
X179492024Y-120557914D02*
X179396786Y-120605533D01*
X136454819Y-106848094D02*
X135454819Y-106848094D01*
X135454819Y-106848094D02*
X135454819Y-106467142D01*
X135454819Y-106467142D02*
X135502438Y-106371904D01*
X135502438Y-106371904D02*
X135550057Y-106324285D01*
X135550057Y-106324285D02*
X135645295Y-106276666D01*
X135645295Y-106276666D02*
X135788152Y-106276666D01*
X135788152Y-106276666D02*
X135883390Y-106324285D01*
X135883390Y-106324285D02*
X135931009Y-106371904D01*
X135931009Y-106371904D02*
X135978628Y-106467142D01*
X135978628Y-106467142D02*
X135978628Y-106848094D01*
X136454819Y-105324285D02*
X136454819Y-105895713D01*
X136454819Y-105609999D02*
X135454819Y-105609999D01*
X135454819Y-105609999D02*
X135597676Y-105705237D01*
X135597676Y-105705237D02*
X135692914Y-105800475D01*
X135692914Y-105800475D02*
X135740533Y-105895713D01*
X194700595Y-138304819D02*
X194700595Y-139114342D01*
X194700595Y-139114342D02*
X194748214Y-139209580D01*
X194748214Y-139209580D02*
X194795833Y-139257200D01*
X194795833Y-139257200D02*
X194891071Y-139304819D01*
X194891071Y-139304819D02*
X195081547Y-139304819D01*
X195081547Y-139304819D02*
X195176785Y-139257200D01*
X195176785Y-139257200D02*
X195224404Y-139209580D01*
X195224404Y-139209580D02*
X195272023Y-139114342D01*
X195272023Y-139114342D02*
X195272023Y-138304819D01*
X195652976Y-138304819D02*
X196272023Y-138304819D01*
X196272023Y-138304819D02*
X195938690Y-138685771D01*
X195938690Y-138685771D02*
X196081547Y-138685771D01*
X196081547Y-138685771D02*
X196176785Y-138733390D01*
X196176785Y-138733390D02*
X196224404Y-138781009D01*
X196224404Y-138781009D02*
X196272023Y-138876247D01*
X196272023Y-138876247D02*
X196272023Y-139114342D01*
X196272023Y-139114342D02*
X196224404Y-139209580D01*
X196224404Y-139209580D02*
X196176785Y-139257200D01*
X196176785Y-139257200D02*
X196081547Y-139304819D01*
X196081547Y-139304819D02*
X195795833Y-139304819D01*
X195795833Y-139304819D02*
X195700595Y-139257200D01*
X195700595Y-139257200D02*
X195652976Y-139209580D01*
X170163095Y-136359819D02*
X170163095Y-137169342D01*
X170163095Y-137169342D02*
X170210714Y-137264580D01*
X170210714Y-137264580D02*
X170258333Y-137312200D01*
X170258333Y-137312200D02*
X170353571Y-137359819D01*
X170353571Y-137359819D02*
X170544047Y-137359819D01*
X170544047Y-137359819D02*
X170639285Y-137312200D01*
X170639285Y-137312200D02*
X170686904Y-137264580D01*
X170686904Y-137264580D02*
X170734523Y-137169342D01*
X170734523Y-137169342D02*
X170734523Y-136359819D01*
X171163095Y-136455057D02*
X171210714Y-136407438D01*
X171210714Y-136407438D02*
X171305952Y-136359819D01*
X171305952Y-136359819D02*
X171544047Y-136359819D01*
X171544047Y-136359819D02*
X171639285Y-136407438D01*
X171639285Y-136407438D02*
X171686904Y-136455057D01*
X171686904Y-136455057D02*
X171734523Y-136550295D01*
X171734523Y-136550295D02*
X171734523Y-136645533D01*
X171734523Y-136645533D02*
X171686904Y-136788390D01*
X171686904Y-136788390D02*
X171115476Y-137359819D01*
X171115476Y-137359819D02*
X171734523Y-137359819D01*
D11*
%TO.C,U1*%
X152662500Y-114590000D02*
X150462500Y-114590000D01*
X152662500Y-114590000D02*
X154862500Y-114590000D01*
X152662500Y-121360000D02*
X150462500Y-121360000D01*
X152662500Y-121360000D02*
X154862500Y-121360000D01*
X148802500Y-115050000D02*
X148472500Y-115290000D01*
X148472500Y-114810000D01*
X148802500Y-115050000D01*
G36*
X148802500Y-115050000D02*
G01*
X148472500Y-115290000D01*
X148472500Y-114810000D01*
X148802500Y-115050000D01*
G37*
%TO.C,U7*%
X192200000Y-122610000D02*
X195800000Y-122610000D01*
X192161522Y-122598478D02*
G75*
G02*
X194000000Y-118159999I1838478J1838478D01*
G01*
X194000000Y-118160000D02*
G75*
G02*
X195838478Y-122598478I0J-2600000D01*
G01*
%TO.C,U5*%
X135700000Y-126290000D02*
X139460000Y-126290000D01*
X135700000Y-133110000D02*
X139460000Y-133110000D01*
X139460000Y-126290000D02*
X139460000Y-127550000D01*
X139460000Y-133110000D02*
X139460000Y-131850000D01*
X134420000Y-126390000D02*
X134180000Y-126060000D01*
X134660000Y-126060000D01*
X134420000Y-126390000D01*
G36*
X134420000Y-126390000D02*
G01*
X134180000Y-126060000D01*
X134660000Y-126060000D01*
X134420000Y-126390000D01*
G37*
%TO.C,U6*%
X191400000Y-102840000D02*
X190600000Y-102840000D01*
X191400000Y-102840000D02*
X192200000Y-102840000D01*
X191400000Y-105960000D02*
X190600000Y-105960000D01*
X191400000Y-105960000D02*
X192200000Y-105960000D01*
X190100000Y-102915000D02*
X189860000Y-102585000D01*
X190340000Y-102585000D01*
X190100000Y-102915000D01*
G36*
X190100000Y-102915000D02*
G01*
X189860000Y-102585000D01*
X190340000Y-102585000D01*
X190100000Y-102915000D01*
G37*
%TO.C,U8*%
X155235000Y-77975000D02*
X155235000Y-84135000D01*
X155235000Y-77975000D02*
X173475000Y-77975000D01*
X155235000Y-102935000D02*
X155235000Y-103715000D01*
X155235000Y-103715000D02*
X156235000Y-103715000D01*
X173475000Y-77975000D02*
X173475000Y-84390000D01*
X173475000Y-102935000D02*
X173475000Y-103715000D01*
X173475000Y-103715000D02*
X172475000Y-103715000D01*
X155230000Y-84860000D02*
X154730000Y-84860000D01*
X155230000Y-84360000D01*
X155230000Y-84860000D01*
G36*
X155230000Y-84860000D02*
G01*
X154730000Y-84860000D01*
X155230000Y-84360000D01*
X155230000Y-84860000D01*
G37*
%TO.C,P1*%
X136860000Y-103385000D02*
X137200000Y-103385000D01*
X137200000Y-103385000D02*
G75*
G02*
X137556955Y-102668275I1399998J-249999D01*
G01*
X137575000Y-110360000D02*
G75*
G02*
X137210121Y-109648598I1024991J974993D01*
G01*
X139625000Y-102660000D02*
G75*
G02*
X139989880Y-103371402I-1025000J-975000D01*
G01*
X140000000Y-109635000D02*
G75*
G02*
X139643045Y-110351725I-1400000J250000D01*
G01*
%TO.C,U3*%
X195462500Y-134890000D02*
X194662500Y-134890000D01*
X195462500Y-134890000D02*
X196262500Y-134890000D01*
X195462500Y-138010000D02*
X194662500Y-138010000D01*
X195462500Y-138010000D02*
X196262500Y-138010000D01*
X197002500Y-138290000D02*
X196522500Y-138290000D01*
X196762500Y-137960000D01*
X197002500Y-138290000D01*
G36*
X197002500Y-138290000D02*
G01*
X196522500Y-138290000D01*
X196762500Y-137960000D01*
X197002500Y-138290000D01*
G37*
%TO.C,U2*%
X170925000Y-130945000D02*
X168975000Y-130945000D01*
X170925000Y-130945000D02*
X172875000Y-130945000D01*
X170925000Y-136065000D02*
X168975000Y-136065000D01*
X170925000Y-136065000D02*
X172875000Y-136065000D01*
X173865000Y-136300000D02*
X173385000Y-136300000D01*
X173625000Y-135970000D01*
X173865000Y-136300000D01*
G36*
X173865000Y-136300000D02*
G01*
X173385000Y-136300000D01*
X173625000Y-135970000D01*
X173865000Y-136300000D01*
G37*
%TD*%
M02*
