%TF.GenerationSoftware,KiCad,Pcbnew,9.0.0*%
%TF.CreationDate,2025-04-07T19:53:14+05:30*%
%TF.ProjectId,Wearable_Charger,57656172-6162-46c6-95a0-436861726765,rev?*%
%TF.SameCoordinates,Original*%
%TF.FileFunction,Copper,L1,Top*%
%TF.FilePolarity,Positive*%
%FSLAX46Y46*%
G04 Gerber Fmt 4.6, Leading zero omitted, Abs format (unit mm)*
G04 Created by KiCad (PCBNEW 9.0.0) date 2025-04-07 19:53:14*
%MOMM*%
%LPD*%
G01*
G04 APERTURE LIST*
G04 Aperture macros list*
%AMRoundRect*
0 Rectangle with rounded corners*
0 $1 Rounding radius*
0 $2 $3 $4 $5 $6 $7 $8 $9 X,Y pos of 4 corners*
0 Add a 4 corners polygon primitive as box body*
4,1,4,$2,$3,$4,$5,$6,$7,$8,$9,$2,$3,0*
0 Add four circle primitives for the rounded corners*
1,1,$1+$1,$2,$3*
1,1,$1+$1,$4,$5*
1,1,$1+$1,$6,$7*
1,1,$1+$1,$8,$9*
0 Add four rect primitives between the rounded corners*
20,1,$1+$1,$2,$3,$4,$5,0*
20,1,$1+$1,$4,$5,$6,$7,0*
20,1,$1+$1,$6,$7,$8,$9,0*
20,1,$1+$1,$8,$9,$2,$3,0*%
G04 Aperture macros list end*
%TA.AperFunction,SMDPad,CuDef*%
%ADD10RoundRect,0.100000X-0.637500X-0.100000X0.637500X-0.100000X0.637500X0.100000X-0.637500X0.100000X0*%
%TD*%
%TA.AperFunction,ComponentPad*%
%ADD11R,1.050000X1.500000*%
%TD*%
%TA.AperFunction,ComponentPad*%
%ADD12O,1.050000X1.500000*%
%TD*%
%TA.AperFunction,SMDPad,CuDef*%
%ADD13RoundRect,0.375000X-0.625000X-0.375000X0.625000X-0.375000X0.625000X0.375000X-0.625000X0.375000X0*%
%TD*%
%TA.AperFunction,SMDPad,CuDef*%
%ADD14RoundRect,0.500000X-0.500000X-1.400000X0.500000X-1.400000X0.500000X1.400000X-0.500000X1.400000X0*%
%TD*%
%TA.AperFunction,SMDPad,CuDef*%
%ADD15RoundRect,0.125000X-0.537500X-0.125000X0.537500X-0.125000X0.537500X0.125000X-0.537500X0.125000X0*%
%TD*%
%TA.AperFunction,SMDPad,CuDef*%
%ADD16R,1.500000X0.900000*%
%TD*%
%TA.AperFunction,SMDPad,CuDef*%
%ADD17R,0.900000X1.500000*%
%TD*%
%TA.AperFunction,SMDPad,CuDef*%
%ADD18R,1.050000X1.050000*%
%TD*%
%TA.AperFunction,HeatsinkPad*%
%ADD19C,0.600000*%
%TD*%
%TA.AperFunction,HeatsinkPad*%
%ADD20R,4.200000X4.200000*%
%TD*%
%TA.AperFunction,SMDPad,CuDef*%
%ADD21RoundRect,0.100000X-0.217500X-0.100000X0.217500X-0.100000X0.217500X0.100000X-0.217500X0.100000X0*%
%TD*%
%TA.AperFunction,SMDPad,CuDef*%
%ADD22RoundRect,0.100000X0.295000X-0.100000X0.295000X0.100000X-0.295000X0.100000X-0.295000X-0.100000X0*%
%TD*%
%TA.AperFunction,SMDPad,CuDef*%
%ADD23RoundRect,0.162500X0.637500X-0.162500X0.637500X0.162500X-0.637500X0.162500X-0.637500X-0.162500X0*%
%TD*%
%TA.AperFunction,SMDPad,CuDef*%
%ADD24RoundRect,0.150000X0.512500X0.150000X-0.512500X0.150000X-0.512500X-0.150000X0.512500X-0.150000X0*%
%TD*%
%TA.AperFunction,SMDPad,CuDef*%
%ADD25RoundRect,0.150000X0.825000X0.150000X-0.825000X0.150000X-0.825000X-0.150000X0.825000X-0.150000X0*%
%TD*%
%TA.AperFunction,HeatsinkPad*%
%ADD26C,0.500000*%
%TD*%
%TA.AperFunction,HeatsinkPad*%
%ADD27R,2.410000X3.300000*%
%TD*%
%TA.AperFunction,ViaPad*%
%ADD28C,0.600000*%
%TD*%
%TA.AperFunction,Conductor*%
%ADD29C,0.200000*%
%TD*%
G04 APERTURE END LIST*
D10*
%TO.P,U1,1,DSG*%
%TO.N,unconnected-(U1-DSG-Pad1)*%
X149800000Y-115050000D03*
%TO.P,U1,2,CHG*%
%TO.N,unconnected-(U1-CHG-Pad2)*%
X149800000Y-115700000D03*
%TO.P,U1,3,VSS*%
%TO.N,unconnected-(U1-VSS-Pad3)*%
X149800000Y-116350000D03*
%TO.P,U1,4,SDA*%
%TO.N,unconnected-(U1-SDA-Pad4)*%
X149800000Y-117000000D03*
%TO.P,U1,5,SCL*%
%TO.N,unconnected-(U1-SCL-Pad5)*%
X149800000Y-117650000D03*
%TO.P,U1,6,TS1*%
%TO.N,unconnected-(U1-TS1-Pad6)*%
X149800000Y-118300000D03*
%TO.P,U1,7,CAP1*%
%TO.N,unconnected-(U1-CAP1-Pad7)*%
X149800000Y-118950000D03*
%TO.P,U1,8,REGOUT*%
%TO.N,unconnected-(U1-REGOUT-Pad8)*%
X149800000Y-119600000D03*
%TO.P,U1,9,REGSRC*%
%TO.N,unconnected-(U1-REGSRC-Pad9)*%
X149800000Y-120250000D03*
%TO.P,U1,10,BAT*%
%TO.N,unconnected-(U1-BAT-Pad10)*%
X149800000Y-120900000D03*
%TO.P,U1,11,NC*%
%TO.N,unconnected-(U1-NC-Pad11)*%
X155525000Y-120900000D03*
%TO.P,U1,12,VC5*%
%TO.N,/5v*%
X155525000Y-120250000D03*
%TO.P,U1,13,VC4*%
%TO.N,unconnected-(U1-VC4-Pad13)*%
X155525000Y-119600000D03*
%TO.P,U1,14,VC3*%
%TO.N,unconnected-(U1-VC3-Pad14)*%
X155525000Y-118950000D03*
%TO.P,U1,15,VC2*%
%TO.N,unconnected-(U1-VC2-Pad15)*%
X155525000Y-118300000D03*
%TO.P,U1,16,VC1*%
%TO.N,unconnected-(U1-VC1-Pad16)*%
X155525000Y-117650000D03*
%TO.P,U1,17,VC0*%
%TO.N,/OUT*%
X155525000Y-117000000D03*
%TO.P,U1,18,SRP*%
%TO.N,unconnected-(U1-SRP-Pad18)*%
X155525000Y-116350000D03*
%TO.P,U1,19,SRN*%
%TO.N,unconnected-(U1-SRN-Pad19)*%
X155525000Y-115700000D03*
%TO.P,U1,20,ALERT*%
%TO.N,unconnected-(U1-ALERT-Pad20)*%
X155525000Y-115050000D03*
%TD*%
D11*
%TO.P,U7,1,GND*%
%TO.N,/gnd*%
X192730000Y-120760000D03*
D12*
%TO.P,U7,2,DQ*%
%TO.N,Net-(U7-DQ)*%
X194000000Y-120760000D03*
%TO.P,U7,3,V_{DD}*%
%TO.N,/vcc*%
X195270000Y-120760000D03*
%TD*%
D13*
%TO.P,U5,1,GND*%
%TO.N,/gnd*%
X134400000Y-127400000D03*
%TO.P,U5,2,VO*%
%TO.N,/5v*%
X134400000Y-129700000D03*
D14*
X140700000Y-129700000D03*
D13*
%TO.P,U5,3,VI*%
%TO.N,/vcc*%
X134400000Y-132000000D03*
%TD*%
D15*
%TO.P,U6,1,IN+*%
%TO.N,unconnected-(U6-IN+-Pad1)*%
X190262500Y-103425000D03*
%TO.P,U6,2,IN-*%
%TO.N,unconnected-(U6-IN--Pad2)*%
X190262500Y-104075000D03*
%TO.P,U6,3,GND*%
%TO.N,/gnd*%
X190262500Y-104725000D03*
%TO.P,U6,4,VS*%
%TO.N,/vcc*%
X190262500Y-105375000D03*
%TO.P,U6,5,SCL*%
%TO.N,/GPIO22*%
X192537500Y-105375000D03*
%TO.P,U6,6,SDA*%
%TO.N,/GPIO21*%
X192537500Y-104725000D03*
%TO.P,U6,7,A0*%
%TO.N,unconnected-(U6-A0-Pad7)*%
X192537500Y-104075000D03*
%TO.P,U6,8,A1*%
%TO.N,unconnected-(U6-A1-Pad8)*%
X192537500Y-103425000D03*
%TD*%
D16*
%TO.P,U8,1,GND*%
%TO.N,/gnd*%
X155605000Y-85585000D03*
%TO.P,U8,2,VDD*%
%TO.N,/vcc*%
X155605000Y-86855000D03*
%TO.P,U8,3,EN*%
%TO.N,unconnected-(U8-EN-Pad3)*%
X155605000Y-88125000D03*
%TO.P,U8,4,SENSOR_VP*%
%TO.N,unconnected-(U8-SENSOR_VP-Pad4)*%
X155605000Y-89395000D03*
%TO.P,U8,5,SENSOR_VN*%
%TO.N,unconnected-(U8-SENSOR_VN-Pad5)*%
X155605000Y-90665000D03*
%TO.P,U8,6,IO34*%
%TO.N,unconnected-(U8-IO34-Pad6)*%
X155605000Y-91935000D03*
%TO.P,U8,7,IO35*%
%TO.N,unconnected-(U8-IO35-Pad7)*%
X155605000Y-93205000D03*
%TO.P,U8,8,IO32*%
%TO.N,unconnected-(U8-IO32-Pad8)*%
X155605000Y-94475000D03*
%TO.P,U8,9,IO33*%
%TO.N,unconnected-(U8-IO33-Pad9)*%
X155605000Y-95745000D03*
%TO.P,U8,10,IO25*%
%TO.N,unconnected-(U8-IO25-Pad10)*%
X155605000Y-97015000D03*
%TO.P,U8,11,IO26*%
%TO.N,unconnected-(U8-IO26-Pad11)*%
X155605000Y-98285000D03*
%TO.P,U8,12,IO27*%
%TO.N,unconnected-(U8-IO27-Pad12)*%
X155605000Y-99555000D03*
%TO.P,U8,13,IO14*%
%TO.N,/GPIO14*%
X155605000Y-100825000D03*
%TO.P,U8,14,IO12*%
%TO.N,unconnected-(U8-IO12-Pad14)*%
X155605000Y-102095000D03*
D17*
%TO.P,U8,15,GND*%
%TO.N,/gnd*%
X158645000Y-103345000D03*
%TO.P,U8,16,IO13*%
%TO.N,unconnected-(U8-IO13-Pad16)*%
X159915000Y-103345000D03*
%TO.P,U8,17,SHD/SD2*%
%TO.N,unconnected-(U8-SHD{slash}SD2-Pad17)*%
X161185000Y-103345000D03*
%TO.P,U8,18,SWP/SD3*%
%TO.N,unconnected-(U8-SWP{slash}SD3-Pad18)*%
X162455000Y-103345000D03*
%TO.P,U8,19,SCS/CMD*%
%TO.N,unconnected-(U8-SCS{slash}CMD-Pad19)*%
X163725000Y-103345000D03*
%TO.P,U8,20,SCK/CLK*%
%TO.N,unconnected-(U8-SCK{slash}CLK-Pad20)*%
X164995000Y-103345000D03*
%TO.P,U8,21,SDO/SD0*%
%TO.N,unconnected-(U8-SDO{slash}SD0-Pad21)*%
X166265000Y-103345000D03*
%TO.P,U8,22,SDI/SD1*%
%TO.N,unconnected-(U8-SDI{slash}SD1-Pad22)*%
X167535000Y-103345000D03*
%TO.P,U8,23,IO15*%
%TO.N,unconnected-(U8-IO15-Pad23)*%
X168805000Y-103345000D03*
%TO.P,U8,24,IO2*%
%TO.N,unconnected-(U8-IO2-Pad24)*%
X170075000Y-103345000D03*
D16*
%TO.P,U8,25,IO0*%
%TO.N,unconnected-(U8-IO0-Pad25)*%
X173105000Y-102095000D03*
%TO.P,U8,26,IO4*%
%TO.N,/GPIO4*%
X173105000Y-100825000D03*
%TO.P,U8,27,IO16*%
%TO.N,unconnected-(U8-IO16-Pad27)*%
X173105000Y-99555000D03*
%TO.P,U8,28,IO17*%
%TO.N,unconnected-(U8-IO17-Pad28)*%
X173105000Y-98285000D03*
%TO.P,U8,29,IO5*%
%TO.N,unconnected-(U8-IO5-Pad29)*%
X173105000Y-97015000D03*
%TO.P,U8,30,IO18*%
%TO.N,unconnected-(U8-IO18-Pad30)*%
X173105000Y-95745000D03*
%TO.P,U8,31,IO19*%
%TO.N,unconnected-(U8-IO19-Pad31)*%
X173105000Y-94475000D03*
%TO.P,U8,32,NC*%
%TO.N,unconnected-(U8-NC-Pad32)*%
X173105000Y-93205000D03*
%TO.P,U8,33,IO21*%
%TO.N,/GPIO21*%
X173105000Y-91935000D03*
%TO.P,U8,34,RXD0/IO3*%
%TO.N,unconnected-(U8-RXD0{slash}IO3-Pad34)*%
X173105000Y-90665000D03*
%TO.P,U8,35,TXD0/IO1*%
%TO.N,unconnected-(U8-TXD0{slash}IO1-Pad35)*%
X173105000Y-89395000D03*
%TO.P,U8,36,IO22*%
%TO.N,/GPIO22*%
X173105000Y-88125000D03*
%TO.P,U8,37,IO23*%
%TO.N,unconnected-(U8-IO23-Pad37)*%
X173105000Y-86855000D03*
%TO.P,U8,38,GND*%
%TO.N,/gnd*%
X173105000Y-85585000D03*
D18*
%TO.P,U8,39,GND*%
X162150000Y-91400000D03*
D19*
X162150000Y-92162500D03*
D18*
X162150000Y-92925000D03*
D19*
X162150000Y-93687500D03*
D18*
X162150000Y-94450000D03*
D19*
X162912500Y-91400000D03*
X162912500Y-92925000D03*
X162912500Y-94450000D03*
D18*
X163675000Y-91400000D03*
D19*
X163675000Y-92162500D03*
D18*
X163675000Y-92925000D03*
D20*
X163675000Y-92925000D03*
D19*
X163675000Y-93687500D03*
D18*
X163675000Y-94450000D03*
D19*
X164437500Y-91400000D03*
X164437500Y-92925000D03*
X164437500Y-94450000D03*
D18*
X165200000Y-91400000D03*
D19*
X165200000Y-92162500D03*
D18*
X165200000Y-92925000D03*
D19*
X165200000Y-93687500D03*
D18*
X165200000Y-94450000D03*
%TD*%
D21*
%TO.P,R1,1*%
%TO.N,Net-(U7-DQ)*%
X178775000Y-121915000D03*
%TO.P,R1,2*%
%TO.N,/GPIO4*%
X179590000Y-121915000D03*
%TD*%
D22*
%TO.P,P1,A1,GND*%
%TO.N,/gnd*%
X137330000Y-103710000D03*
%TO.P,P1,A4,VBUS*%
%TO.N,unconnected-(P1-VBUS-PadA4)*%
X137330000Y-104510000D03*
%TO.P,P1,A5,CC*%
%TO.N,unconnected-(P1-CC-PadA5)*%
X137330000Y-105310000D03*
%TO.P,P1,A6,D+*%
%TO.N,/IN*%
X137330000Y-106110000D03*
%TO.P,P1,A7,D-*%
%TO.N,unconnected-(P1-D--PadA7)*%
X137330000Y-106910000D03*
%TO.P,P1,A8*%
%TO.N,N/C*%
X137330000Y-107710000D03*
%TO.P,P1,A9,VBUS*%
%TO.N,unconnected-(P1-VBUS-PadA4)_3*%
X137330000Y-108510000D03*
%TO.P,P1,A12,GND*%
%TO.N,/gnd*%
X137330000Y-109310000D03*
%TO.P,P1,B1,GND*%
X139870000Y-109310000D03*
%TO.P,P1,B4,VBUS*%
%TO.N,unconnected-(P1-VBUS-PadA4)_2*%
X139870000Y-108510000D03*
%TO.P,P1,B5,VCONN*%
%TO.N,unconnected-(P1-VCONN-PadB5)*%
X139870000Y-107710000D03*
%TO.P,P1,B6*%
%TO.N,N/C*%
X139870000Y-106910000D03*
%TO.P,P1,B7*%
X139870000Y-106110000D03*
%TO.P,P1,B8*%
X139870000Y-105310000D03*
%TO.P,P1,B9,VBUS*%
%TO.N,unconnected-(P1-VBUS-PadA4)_1*%
X139870000Y-104510000D03*
%TO.P,P1,B12,GND*%
%TO.N,/gnd*%
X139870000Y-103710000D03*
D23*
%TO.P,P1,S1,SHIELD*%
%TO.N,unconnected-(P1-SHIELD-PadS1)_1*%
X138600000Y-102560000D03*
%TO.N,unconnected-(P1-SHIELD-PadS1)*%
X138600000Y-110460000D03*
%TD*%
D24*
%TO.P,U3,1,SW*%
%TO.N,/OUT*%
X196600000Y-137400000D03*
%TO.P,U3,2,GND*%
%TO.N,/gnd*%
X196600000Y-136450000D03*
%TO.P,U3,3,FB*%
%TO.N,/vcc*%
X196600000Y-135500000D03*
%TO.P,U3,4,EN*%
%TO.N,unconnected-(U3-EN-Pad4)*%
X194325000Y-135500000D03*
%TO.P,U3,5,IN*%
%TO.N,/5v*%
X194325000Y-136450000D03*
%TO.P,U3,6,NC*%
%TO.N,unconnected-(U3-NC-Pad6)*%
X194325000Y-137400000D03*
%TD*%
D25*
%TO.P,U2,1,TEMP*%
%TO.N,/5v*%
X173400000Y-135410000D03*
%TO.P,U2,2,PROG*%
%TO.N,/OUT*%
X173400000Y-134140000D03*
%TO.P,U2,3,GND*%
%TO.N,/gnd*%
X173400000Y-132870000D03*
%TO.P,U2,4,V_{CC}*%
%TO.N,/vcc*%
X173400000Y-131600000D03*
%TO.P,U2,5,BAT*%
%TO.N,unconnected-(U2-BAT-Pad5)*%
X168450000Y-131600000D03*
%TO.P,U2,6,~{STDBY}*%
%TO.N,/IN*%
X168450000Y-132870000D03*
%TO.P,U2,7,~{CHRG}*%
%TO.N,unconnected-(U2-~{CHRG}-Pad7)*%
X168450000Y-134140000D03*
%TO.P,U2,8,CE*%
%TO.N,unconnected-(U2-CE-Pad8)*%
X168450000Y-135410000D03*
D26*
%TO.P,U2,9,EPAD*%
%TO.N,unconnected-(U2-EPAD-Pad9)_7*%
X171625000Y-134705000D03*
%TO.N,unconnected-(U2-EPAD-Pad9)_2*%
X171625000Y-133505000D03*
%TO.N,unconnected-(U2-EPAD-Pad9)_6*%
X171625000Y-132305000D03*
D27*
%TO.N,unconnected-(U2-EPAD-Pad9)_3*%
X170925000Y-133505000D03*
D26*
%TO.N,unconnected-(U2-EPAD-Pad9)_4*%
X170225000Y-134705000D03*
%TO.N,unconnected-(U2-EPAD-Pad9)*%
X170225000Y-133505000D03*
%TO.N,unconnected-(U2-EPAD-Pad9)_5*%
X170225000Y-132305000D03*
%TD*%
D28*
%TO.N,/IN*%
X144600000Y-106000000D03*
X153500000Y-110100000D03*
X166800000Y-134400000D03*
X138090000Y-106110000D03*
%TO.N,/OUT*%
X187600000Y-136400000D03*
X184000000Y-128000000D03*
%TO.N,/5v*%
X176400000Y-137200000D03*
X185800000Y-136400000D03*
X191801000Y-139199000D03*
X161200000Y-121000000D03*
%TO.N,/vcc*%
X186400000Y-123392305D03*
X183400000Y-107200000D03*
X162200000Y-106200000D03*
X186400000Y-113200000D03*
X189000000Y-135600000D03*
X188600000Y-124600000D03*
%TO.N,/GPIO21*%
X198200000Y-103200000D03*
X180200000Y-101800000D03*
%TD*%
D29*
%TO.N,/gnd*%
X195896532Y-138001000D02*
X197399000Y-138001000D01*
X196096000Y-121327140D02*
X192222140Y-125201000D01*
X141920000Y-102600000D02*
X141000000Y-102600000D01*
X141920000Y-98888000D02*
X154629000Y-86179000D01*
X137271196Y-109310000D02*
X137330000Y-109310000D01*
X195841568Y-132870000D02*
X184553140Y-132870000D01*
X158645000Y-97955000D02*
X162150000Y-94450000D01*
X171777500Y-85585000D02*
X165200000Y-92162500D01*
X162150000Y-91400000D02*
X156335000Y-85585000D01*
X162801000Y-105951057D02*
X162801000Y-106448943D01*
X197964500Y-137435500D02*
X197964500Y-134992932D01*
X172573000Y-85585000D02*
X166758000Y-91400000D01*
X196600000Y-136450000D02*
X196245532Y-136450000D01*
X139870000Y-103710000D02*
X140980000Y-102600000D01*
X158645000Y-103345000D02*
X158645000Y-97955000D01*
X142649000Y-103329000D02*
X141920000Y-102600000D01*
X136190000Y-102600000D02*
X135520000Y-103270000D01*
X134400000Y-127400000D02*
X132600000Y-127400000D01*
X172054000Y-85686000D02*
X172155000Y-85585000D01*
X135520000Y-103270000D02*
X135520000Y-107558804D01*
X132000000Y-126800000D02*
X132000000Y-102600000D01*
X162801000Y-106448943D02*
X162448943Y-106801000D01*
X191226000Y-105331918D02*
X191226000Y-105026001D01*
X141920000Y-102600000D02*
X141920000Y-98888000D01*
X195636500Y-137740968D02*
X195896532Y-138001000D01*
X158645000Y-103855000D02*
X160389000Y-105599000D01*
X197399000Y-138001000D02*
X197964500Y-137435500D01*
X195896532Y-138001000D02*
X197303468Y-138001000D01*
X173400000Y-132870000D02*
X184553140Y-132870000D01*
X192730000Y-120636860D02*
X192730000Y-120760000D01*
X181173630Y-125201000D02*
X172054000Y-116081370D01*
X132000000Y-102600000D02*
X132400000Y-102200000D01*
X190924999Y-104725000D02*
X190262500Y-104725000D01*
X146823074Y-106801000D02*
X143351074Y-103329000D01*
X158645000Y-103345000D02*
X158645000Y-103855000D01*
X160389000Y-105599000D02*
X162448943Y-105599000D01*
X197303468Y-138001000D02*
X197964500Y-137339968D01*
X173105000Y-85585000D02*
X171777500Y-85585000D01*
X192222140Y-125201000D02*
X181173630Y-125201000D01*
X172054000Y-116081370D02*
X172054000Y-85686000D01*
X140980000Y-102600000D02*
X141000000Y-102600000D01*
X196096000Y-120192860D02*
X196096000Y-121327140D01*
X173105000Y-85585000D02*
X172573000Y-85585000D01*
X154629000Y-86179000D02*
X156581000Y-86179000D01*
X162448943Y-105599000D02*
X162801000Y-105951057D01*
X195636500Y-137059032D02*
X195636500Y-137740968D01*
X197964500Y-137339968D02*
X197964500Y-112070418D01*
X156581000Y-86179000D02*
X162150000Y-91748000D01*
X136220000Y-102600000D02*
X136190000Y-102600000D01*
X190880918Y-104725000D02*
X191226000Y-105070082D01*
X191226000Y-105070082D02*
X191226000Y-115322860D01*
X156335000Y-85585000D02*
X155605000Y-85585000D01*
X190262500Y-104725000D02*
X190880918Y-104725000D01*
X162448943Y-106801000D02*
X146823074Y-106801000D01*
X137330000Y-103710000D02*
X139870000Y-103710000D01*
X195612140Y-119709000D02*
X193657860Y-119709000D01*
X135520000Y-107558804D02*
X137271196Y-109310000D01*
X143351074Y-103329000D02*
X142649000Y-103329000D01*
X184553140Y-132870000D02*
X196096000Y-121327140D01*
X197964500Y-134992932D02*
X195841568Y-132870000D01*
X132600000Y-127400000D02*
X132000000Y-126800000D01*
X132400000Y-102200000D02*
X135790000Y-102200000D01*
X137330000Y-109310000D02*
X139870000Y-109310000D01*
X191226000Y-105026001D02*
X190924999Y-104725000D01*
X137330000Y-103710000D02*
X136220000Y-102600000D01*
X172155000Y-85585000D02*
X173105000Y-85585000D01*
X193657860Y-119709000D02*
X192730000Y-120636860D01*
X135790000Y-102200000D02*
X136190000Y-102600000D01*
X197964500Y-112070418D02*
X191226000Y-105331918D01*
X166758000Y-91400000D02*
X165200000Y-91400000D01*
X196245532Y-136450000D02*
X195636500Y-137059032D01*
X162150000Y-91748000D02*
X162150000Y-93687500D01*
X196096000Y-120192860D02*
X195612140Y-119709000D01*
X191226000Y-115322860D02*
X196096000Y-120192860D01*
%TO.N,/IN*%
X167475001Y-132870000D02*
X166800000Y-133545001D01*
X153500000Y-110100000D02*
X149800000Y-110100000D01*
X137330000Y-106110000D02*
X137440000Y-106000000D01*
X144600000Y-106000000D02*
X148700000Y-110100000D01*
X168450000Y-132870000D02*
X167475001Y-132870000D01*
X137330000Y-106110000D02*
X138090000Y-106110000D01*
X166800000Y-133545001D02*
X166800000Y-134400000D01*
X148700000Y-110100000D02*
X149800000Y-110100000D01*
%TO.N,Net-(U7-DQ)*%
X179203630Y-122416000D02*
X192951000Y-122416000D01*
X178775000Y-121915000D02*
X178775000Y-121987370D01*
X194000000Y-121367000D02*
X194000000Y-120760000D01*
X192951000Y-122416000D02*
X194000000Y-121367000D01*
X178775000Y-121987370D02*
X179203630Y-122416000D01*
%TO.N,/GPIO4*%
X173637000Y-100825000D02*
X173105000Y-100825000D01*
X179590000Y-106778000D02*
X173637000Y-100825000D01*
X179590000Y-121915000D02*
X179590000Y-106778000D01*
%TO.N,/OUT*%
X173400000Y-134140000D02*
X185340000Y-134140000D01*
X197000000Y-137400000D02*
X196600000Y-137400000D01*
X158049943Y-117000000D02*
X155525000Y-117000000D01*
X169049943Y-128000000D02*
X158049943Y-117000000D01*
X196544468Y-134140000D02*
X197563500Y-135159032D01*
X173400000Y-134140000D02*
X196544468Y-134140000D01*
X185340000Y-134140000D02*
X187600000Y-136400000D01*
X197563500Y-136836500D02*
X197000000Y-137400000D01*
X184000000Y-128000000D02*
X169049943Y-128000000D01*
X197563500Y-135159032D02*
X197563500Y-136836500D01*
%TO.N,/5v*%
X173400000Y-135410000D02*
X184810000Y-135410000D01*
X173600000Y-137000000D02*
X173800000Y-137200000D01*
X155525000Y-120250000D02*
X154867630Y-120250000D01*
X145417630Y-129700000D02*
X140700000Y-129700000D01*
X154867630Y-120250000D02*
X145417630Y-129700000D01*
X191801000Y-139199000D02*
X191801000Y-138311501D01*
X161200000Y-121000000D02*
X160450000Y-120250000D01*
X173400000Y-135410000D02*
X173590000Y-135410000D01*
X193662501Y-136450000D02*
X194325000Y-136450000D01*
X184810000Y-135410000D02*
X185800000Y-136400000D01*
X160450000Y-120250000D02*
X155525000Y-120250000D01*
X173400000Y-135410000D02*
X173400000Y-136800000D01*
X140700000Y-129700000D02*
X134400000Y-129700000D01*
X173800000Y-137200000D02*
X176400000Y-137200000D01*
X173590000Y-135410000D02*
X173600000Y-135400000D01*
X191801000Y-138311501D02*
X193662501Y-136450000D01*
X173400000Y-136800000D02*
X173600000Y-137000000D01*
%TO.N,/vcc*%
X186400000Y-113200000D02*
X186400000Y-109237500D01*
X157894000Y-104396000D02*
X159698000Y-106200000D01*
X165400000Y-137000000D02*
X166401000Y-138001000D01*
X195270000Y-120985000D02*
X192862695Y-123392305D01*
X195270000Y-120760000D02*
X195270000Y-120985000D01*
X195270000Y-120985000D02*
X191655000Y-124600000D01*
X172799000Y-130999000D02*
X167434032Y-130999000D01*
X186518750Y-109118750D02*
X190262500Y-105375000D01*
X155605000Y-86855000D02*
X156555000Y-86855000D01*
X193621532Y-134899000D02*
X195999000Y-134899000D01*
X165400000Y-132000000D02*
X165400000Y-137000000D01*
X157894000Y-88194000D02*
X157894000Y-104396000D01*
X183400000Y-107200000D02*
X185318750Y-109118750D01*
X167434032Y-130999000D02*
X166433032Y-132000000D01*
X190519532Y-138001000D02*
X193621532Y-134899000D01*
X173400000Y-131600000D02*
X172799000Y-130999000D01*
X190262500Y-105375000D02*
X189600001Y-105375000D01*
X189000000Y-135600000D02*
X190519532Y-137119532D01*
X166401000Y-138001000D02*
X190519532Y-138001000D01*
X165400000Y-132000000D02*
X134400000Y-132000000D01*
X195999000Y-134899000D02*
X196600000Y-135500000D01*
X191655000Y-124600000D02*
X188600000Y-124600000D01*
X192862695Y-123392305D02*
X186400000Y-123392305D01*
X156555000Y-86855000D02*
X157894000Y-88194000D01*
X159698000Y-106200000D02*
X162200000Y-106200000D01*
X186400000Y-123392305D02*
X186385851Y-123392305D01*
X186400000Y-109237500D02*
X186518750Y-109118750D01*
X166433032Y-132000000D02*
X165400000Y-132000000D01*
X185318750Y-109118750D02*
X186518750Y-109118750D01*
X155073000Y-86855000D02*
X155605000Y-86855000D01*
X190519532Y-137119532D02*
X190519532Y-138001000D01*
%TO.N,/GPIO21*%
X198200000Y-103200000D02*
X196675000Y-104725000D01*
X173105000Y-91935000D02*
X173637000Y-91935000D01*
X173637000Y-91935000D02*
X180200000Y-98498000D01*
X180200000Y-98498000D02*
X180200000Y-101800000D01*
X196675000Y-104725000D02*
X192537500Y-104725000D01*
%TO.N,/GPIO22*%
X192537500Y-105375000D02*
X196874943Y-105375000D01*
X198801000Y-103448943D02*
X198801000Y-102951057D01*
X196874943Y-105375000D02*
X198801000Y-103448943D01*
X183974943Y-88125000D02*
X173105000Y-88125000D01*
X198801000Y-102951057D02*
X183974943Y-88125000D01*
%TD*%
M02*
